<svg id="magicoon-Bold" height="512" viewBox="0 0 512 512" width="512" xmlns="http://www.w3.org/2000/svg"><g id="link-Bold"><path id="link-Bold-2" d="m438.292 223.292-39.24 39.25a21.331 21.331 0 0 1 -30.167-30.167l39.24-39.25a63.236 63.236 0 0 0 0-89.292c-23.854-23.875-65.427-23.875-89.26 0l-71.665 71.667a43.312 43.312 0 0 0 -5.7 6.75c-19.156 26.1-16.448 60.4 5.708 82.562a21.338 21.338 0 0 1 -30.187 30.167c-37.156-37.187-41.621-94.791-10.621-136.958a81.427 81.427 0 0 1 10.6-12.667l71.688-71.687a105.793 105.793 0 1 1 149.6 149.625zm-173.492-6.271a21.327 21.327 0 0 0 0 30.167 62.44 62.44 0 0 1 14.677 66.083 60.19 60.19 0 0 1 -14.677 23.229l-71.667 71.667c-23.833 23.875-65.406 23.875-89.26 0a63.236 63.236 0 0 1 0-89.292l39.24-39.25a21.331 21.331 0 1 0 -30.167-30.167l-39.24 39.25a105.793 105.793 0 1 0 149.6 149.625l71.667-71.666a102.526 102.526 0 0 0 24.813-39.438 105.884 105.884 0 0 0 -24.823-110.208 21.327 21.327 0 0 0 -30.163 0z" data-name="link-Bold"/></g></svg>
